<svg width="15" height="72" viewBox="0 0 15 72" fill="none" xmlns="http://www.w3.org/2000/svg">
<g id="Group 31">
<path id="Vector" d="M11.048 50.8391C15.8784 56.9131 13.3914 59.7826 13.3914 59.7826C11.4784 62.0783 9.94799 59.1609 9.94799 59.1609C9.32625 56.7217 11.4784 58.2044 11.4784 58.2044C13.248 57.6304 12.961 55.3826 11.9088 54.5696C10.6175 53.5652 8.89579 54.1391 8.13058 55.3348C7.0784 57.0087 7.12625 59.4 8.41755 60.7391C8.94364 61.2652 9.51754 61.6957 10.1393 61.9348L7.17405 71.5L4.1132 61.9348C4.08132 61.9348 4.04943 61.9188 4.01754 61.887C4.73494 61.6478 5.35668 61.1696 5.93059 60.5C7.17407 59.113 7.17407 56.7217 6.02625 55.0957C5.2132 53.9478 3.49146 53.4217 2.20016 54.4739C1.19581 55.3348 1.0045 57.5826 2.82189 58.0609C2.82189 58.0609 4.87842 56.5783 4.35233 59.0174C4.35233 59.0174 2.91754 61.9826 0.908849 59.7826C0.908849 59.7826 -1.67377 56.9609 2.96536 50.6957C5.50015 52.0348 8.5132 52.0826 11.048 50.8391Z" fill="#6A3899"/>
<path id="Vector_2" d="M11.048 20.6609C15.8784 14.5869 13.3914 11.6696 13.3914 11.6696C11.4784 9.3739 9.94799 12.3391 9.94799 12.3391C9.32625 14.7304 11.4784 13.2957 11.4784 13.2957C13.248 13.8696 12.961 16.1174 11.9088 16.9304C10.6175 17.9348 8.89579 17.313 8.13058 16.1652C7.0784 14.4913 7.12625 12.1 8.41755 10.7609C8.94364 10.2348 9.51754 9.80435 10.1393 9.56522L7.17405 3.8147e-06L4.1132 9.56522C4.08132 9.56522 4.04943 9.56522 4.01754 9.56522C4.73494 9.85218 5.35668 10.3304 5.93059 10.9522C7.17407 12.3869 7.17407 14.7304 6.02625 16.3565C5.2132 17.5043 3.49146 18.0304 2.20016 16.9783C1.19581 16.1652 1.0045 13.9174 2.82189 13.3913C2.82189 13.3913 4.87842 14.9217 4.35233 12.4826C4.35233 12.4826 2.91754 9.5174 0.908849 11.7174C0.908849 11.7174 -1.67377 14.5391 2.96536 20.8044C5.50015 19.4652 8.5132 19.4174 11.048 20.6609Z" fill="#6A3899"/>
<path id="Vector_3" d="M7.12615 42.8043C5.02181 42.8043 3.30007 44.5261 3.30007 46.6304C3.30007 48.7348 5.02181 50.4565 7.12615 50.4565C9.2305 50.4565 10.9522 48.7348 10.9522 46.6304C10.9522 44.5261 9.2305 42.8043 7.12615 42.8043Z" fill="#6A3899"/>
<path id="Vector_4" d="M7.12615 28.9348C5.02181 28.9348 3.30007 27.213 3.30007 25.1087C3.30007 23.0043 5.02181 21.2826 7.12615 21.2826C9.2305 21.2826 10.9522 23.0043 10.9522 25.1087C10.9522 27.213 9.2305 28.9348 7.12615 28.9348Z" fill="#6A3899"/>
<path id="Vector_5" fill-rule="evenodd" clip-rule="evenodd" d="M0 35.8695L7.1261 42.9956L14.2522 35.8695L7.1261 28.7434L0 35.8695ZM7.1261 40.3174L2.67828 35.8695L7.1261 31.4695L11.5261 35.8695L7.1261 40.3174Z" fill="#6A3899"/>
</g>
</svg>
